<?xml version="1.0" standalone="no"?>
<!DOCTYPE svg PUBLIC "-//W3C//DTD SVG 20010904//EN"
 "http://www.w3.org/TR/2001/REC-SVG-20010904/DTD/svg10.dtd">
<svg version="1.0" xmlns="http://www.w3.org/2000/svg"
 width="2108.000000pt" height="2108.000000pt" viewBox="0 0 2108.000000 2108.000000"
 preserveAspectRatio="xMidYMid meet">
<metadata>
Created by potrace 1.11, written by Peter Selinger 2001-2013
</metadata>
<g transform="translate(0.000000,2108.000000) scale(0.100000,-0.100000)"
fill="#000000" stroke="none">
<path d="M7450 20379 c-1090 -55 -2079 -633 -2695 -1574 -154 -236 -243 -402
-349 -658 -493 -1185 -468 -2620 69 -3982 503 -1276 1483 -2531 2800 -3588
898 -720 1994 -1366 3014 -1775 l116 -47 130 0 130 0 115 46 c871 351 1834
891 2615 1468 1631 1203 2780 2654 3303 4172 398 1155 426 2365 77 3414 -380
1140 -1180 1982 -2229 2344 -373 129 -700 183 -1106 183 -255 1 -371 -9 -610
-48 -749 -123 -1533 -500 -2211 -1061 -43 -35 -80 -63 -84 -63 -4 0 -41 29
-84 64 -543 451 -1184 795 -1806 970 -247 69 -556 121 -769 131 -67 3 -155 7
-196 9 -41 2 -145 -1 -230 -5z m560 -1103 c342 -56 637 -154 970 -322 367
-185 697 -420 1053 -752 244 -228 317 -267 502 -267 184 0 256 38 502 266 249
232 405 358 630 507 1060 707 2175 786 3043 217 482 -317 852 -826 1053 -1450
198 -614 230 -1316 91 -2015 -182 -919 -649 -1840 -1378 -2714 -725 -870
-1704 -1680 -2778 -2299 l-48 -28 0 938 0 939 686 851 686 851 48 -24 c229
-115 522 -67 709 115 353 345 212 937 -259 1083 -96 29 -253 31 -345 4 -105
-31 -194 -85 -275 -166 -123 -122 -179 -248 -187 -425 -6 -130 8 -200 64 -315
21 -41 37 -80 36 -86 0 -7 -322 -409 -714 -895 l-714 -884 -5 -1070 -5 -1069
-190 -98 c-104 -54 -196 -98 -204 -98 -12 0 -13 88 -8 613 4 336 7 920 7 1297
l0 686 405 529 405 530 0 1158 c0 979 2 1157 14 1157 7 0 51 19 97 42 63 31
103 60 160 117 88 89 139 174 170 285 30 111 24 289 -13 388 -92 245 -307 408
-563 425 -293 19 -581 -196 -649 -487 -18 -76 -21 -217 -5 -292 6 -29 31 -96
56 -148 38 -78 59 -108 122 -170 82 -81 180 -140 272 -164 l54 -13 3 -1106 2
-1105 -405 -530 -405 -531 0 -1406 0 -1406 -76 -35 c-41 -19 -81 -34 -88 -34
-7 0 -69 25 -137 55 l-124 54 0 2187 0 2187 52 18 c103 35 176 81 258 164 129
129 185 265 185 452 0 115 -17 190 -65 288 -125 256 -408 396 -685 341 -331
-67 -546 -366 -508 -708 26 -244 204 -464 431 -534 l57 -18 0 -2124 0 -2124
-177 92 c-97 51 -187 99 -200 107 l-23 15 0 517 0 516 -490 503 -490 503 2
676 3 675 65 22 c97 33 157 72 240 155 122 123 178 249 187 421 6 129 -11 211
-67 325 -124 249 -399 389 -669 341 -255 -45 -465 -252 -516 -508 -29 -146
-11 -276 57 -417 69 -144 219 -276 367 -321 l56 -18 3 -734 2 -734 490 -502
490 -501 0 -381 c0 -209 -4 -380 -9 -380 -14 0 -310 182 -515 317 -1110 730
-2059 1642 -2697 2593 -541 806 -855 1613 -956 2458 -27 230 -25 732 5 952 67
494 201 910 405 1263 406 697 1008 1115 1762 1222 132 19 550 13 685 -9z
m3750 -2279 c66 -25 155 -109 188 -179 49 -107 46 -236 -10 -340 -36 -68 -86
-116 -160 -155 -48 -25 -62 -28 -158 -28 -96 0 -110 3 -158 28 -75 39 -124 87
-161 156 -116 217 11 491 250 541 58 12 141 3 209 -23z m-1565 -1648 c273 -50
397 -369 229 -589 -166 -217 -494 -181 -616 68 -30 60 -33 75 -33 157 0 76 4
99 27 147 54 115 164 201 280 218 29 4 53 8 54 9 0 0 27 -4 59 -10z m3302
-462 c229 -118 280 -399 107 -586 -75 -81 -151 -115 -259 -115 -101 0 -174 27
-244 90 -134 121 -161 332 -61 482 42 63 106 114 179 143 71 29 208 22 278
-14z m-4885 -209 c170 -78 255 -265 200 -444 -99 -321 -526 -356 -675 -55 -29
60 -32 74 -32 161 0 82 4 103 26 151 47 99 128 171 232 205 65 21 181 13 249
-18z"/>
<path d="M1430 14669 c-398 -51 -750 -235 -1018 -533 -222 -245 -367 -577
-402 -915 -14 -145 -14 -5085 1 -5219 44 -403 215 -750 503 -1018 46 -44 1167
-1058 2490 -2254 l2405 -2175 1 -725 c0 -615 2 -735 15 -785 48 -189 188 -333
380 -392 57 -17 138 -18 1755 -18 1398 0 1705 2 1750 14 182 45 332 183 393
360 l22 66 3 2550 c2 1656 -1 2586 -7 2652 -28 279 -116 526 -270 755 -38 57
-93 130 -123 163 -42 47 -2615 2500 -2998 2859 -221 206 -497 347 -804 408
-161 33 -443 32 -604 0 -263 -53 -491 -157 -697 -317 -111 -86 -258 -243 -334
-355 -35 -52 -65 -96 -67 -98 -1 -2 -132 89 -290 201 l-289 204 -5 1594 -6
1594 -22 97 c-107 468 -376 843 -769 1075 -297 174 -681 255 -1013 212z m318
-1084 c177 -42 313 -167 391 -359 15 -37 16 -197 21 -1771 l5 -1730 22 -65
c32 -91 75 -162 136 -221 28 -28 337 -252 686 -498 349 -245 637 -453 642
-461 4 -8 22 -60 39 -115 57 -178 159 -366 285 -525 28 -34 544 -530 1149
-1101 842 -797 1113 -1047 1160 -1073 161 -90 354 -93 518 -10 116 59 232 204
269 339 22 77 17 227 -10 303 -48 139 -31 122 -1136 1166 -572 541 -1058 1001
-1079 1022 -103 103 -157 232 -159 379 -2 291 215 526 503 542 181 11 296 -40
475 -209 2091 -1984 2837 -2697 2881 -2757 29 -39 63 -99 75 -133 l24 -63 3
-2268 2 -2267 -1085 0 -1085 0 0 583 c0 628 0 631 -55 743 -37 76 -79 122
-265 290 -91 83 -1186 1074 -2435 2204 -2656 2403 -2481 2244 -2523 2294 -19
22 -47 66 -63 98 -63 125 -59 -60 -57 2720 l3 2533 25 65 c104 266 368 409
638 345z"/>
<path d="M19295 14674 c-292 -42 -523 -124 -727 -261 -364 -243 -598 -588
-700 -1031 l-22 -97 -6 -1594 -5 -1594 -289 -204 c-159 -112 -289 -203 -291
-201 -1 2 -30 46 -65 98 -87 129 -294 335 -420 419 -184 122 -382 206 -600
252 -90 20 -135 23 -315 23 -179 0 -225 -3 -312 -22 -307 -67 -575 -204 -793
-408 -501 -470 -2978 -2835 -3019 -2884 -165 -197 -295 -464 -345 -710 -36
-178 -37 -260 -34 -2845 l3 -2540 22 -66 c61 -177 211 -315 393 -360 45 -12
352 -14 1750 -14 1618 0 1698 1 1755 18 173 54 300 171 364 336 l26 66 5 751
5 751 2425 2192 c1334 1206 2468 2236 2520 2290 257 262 408 587 449 963 15
131 15 5095 1 5223 -24 209 -69 364 -160 550 -222 451 -635 770 -1135 875 -73
15 -147 22 -275 25 -96 2 -188 1 -205 -1z m290 -1089 c200 -51 352 -206 400
-406 13 -56 15 -362 15 -2560 0 -1504 -4 -2516 -9 -2545 -24 -127 -76 -218
-179 -318 -37 -35 -1183 -1074 -2547 -2308 -1364 -1235 -2503 -2270 -2532
-2301 -28 -31 -63 -81 -78 -111 -55 -112 -55 -114 -55 -743 l0 -583 -1085 0
-1085 0 0 2240 c0 1586 3 2254 11 2292 16 78 72 186 126 245 105 114 2951
2809 2998 2838 100 64 157 79 290 79 99 0 131 -4 180 -22 200 -74 340 -256
360 -468 12 -124 -37 -284 -116 -380 -19 -23 -491 -472 -1049 -998 -558 -527
-1043 -986 -1077 -1021 -218 -224 -212 -564 13 -774 107 -100 217 -144 364
-144 98 0 178 20 263 66 45 24 324 282 1165 1077 968 915 1117 1058 1188 1153
102 135 185 294 244 467 l46 135 635 446 c349 246 657 468 685 495 59 57 105
132 137 224 l22 65 5 1725 c5 1709 5 1726 26 1781 64 177 211 312 387 355 72
17 182 17 252 -1z"/>
</g>
</svg>
